<svg width="50" height="50" viewBox="0 0 50 50" fill="none" xmlns="http://www.w3.org/2000/svg">
<g id="instagram">
<path id="Vector" d="M35.417 4.1665H14.5837C8.83069 4.1665 4.16699 8.8302 4.16699 14.5832V35.4165C4.16699 41.1695 8.83069 45.8332 14.5837 45.8332H35.417C41.17 45.8332 45.8337 41.1695 45.8337 35.4165V14.5832C45.8337 8.8302 41.17 4.1665 35.417 4.1665Z" stroke="white" stroke-width="2" stroke-linecap="round" stroke-linejoin="round"/>
<path id="Vector_2" d="M33.3334 23.6876C33.5905 25.4215 33.2943 27.1923 32.487 28.7481C31.6797 30.3039 30.4024 31.5656 28.8368 32.3536C27.2711 33.1417 25.4968 33.416 23.7663 33.1375C22.0357 32.859 20.437 32.042 19.1976 30.8026C17.9582 29.5631 17.1411 27.9645 16.8627 26.2339C16.5842 24.5034 16.8585 22.7291 17.6466 21.1634C18.4346 19.5978 19.6963 18.3204 21.2521 17.5131C22.8079 16.7059 24.5787 16.4097 26.3125 16.6668C28.0811 16.9291 29.7185 17.7532 30.9827 19.0174C32.247 20.2817 33.0711 21.9191 33.3334 23.6876Z" stroke="white" stroke-width="2" stroke-linecap="round" stroke-linejoin="round"/>
<path id="Vector_3" d="M36.458 13.5415H36.4788" stroke="white" stroke-width="2" stroke-linecap="round" stroke-linejoin="round"/>
</g>
</svg>
