<svg width="31" height="30" viewBox="0 0 31 30" fill="none" xmlns="http://www.w3.org/2000/svg">
<g id="map-pin">
<path id="Vector" d="M27.1912 12.5C27.1912 21.25 15.9498 28.75 15.9498 28.75C15.9498 28.75 4.7085 21.25 4.7085 12.5C4.7085 9.51631 5.89285 6.65483 8.00101 4.54505C10.1092 2.43526 12.9685 1.25 15.9498 1.25C18.9312 1.25 21.7905 2.43526 23.8987 4.54505C26.0068 6.65483 27.1912 9.51631 27.1912 12.5Z" stroke="#17C2EC" stroke-width="2" stroke-linecap="round" stroke-linejoin="round"/>
<path id="Vector_2" d="M15.9498 16.25C18.0192 16.25 19.6969 14.5711 19.6969 12.5C19.6969 10.4289 18.0192 8.75 15.9498 8.75C13.8803 8.75 12.2026 10.4289 12.2026 12.5C12.2026 14.5711 13.8803 16.25 15.9498 16.25Z" stroke="#17C2EC" stroke-width="2" stroke-linecap="round" stroke-linejoin="round"/>
</g>
</svg>
