<svg width="50" height="50" viewBox="0 0 50 50" fill="none" xmlns="http://www.w3.org/2000/svg">
<g id="thermometer">
<path id="Vector" d="M29.2981 30.642V7.70061C29.2981 6.34972 28.7614 5.05415 27.8062 4.09892C26.851 3.1437 25.5554 2.60706 24.2045 2.60706C22.8536 2.60706 21.5581 3.1437 20.6028 4.09892C19.6476 5.05415 19.111 6.34972 19.111 7.70061V30.642C17.4755 31.7347 16.2348 33.3245 15.5721 35.1765C14.9094 37.0284 14.8599 39.0444 15.4309 40.9267C16.0019 42.8089 17.163 44.4577 18.7429 45.6294C20.3228 46.8011 22.2376 47.4337 24.2045 47.4337C26.1715 47.4337 28.0863 46.8011 29.6662 45.6294C31.246 44.4577 32.4072 42.8089 32.9782 40.9267C33.5491 39.0444 33.4996 37.0284 32.8369 35.1765C32.1743 33.3245 30.9336 31.7347 29.2981 30.642Z" stroke="white" stroke-width="2.99376" stroke-linecap="round" stroke-linejoin="round"/>
</g>
</svg>
