<svg width="50" height="50" viewBox="0 0 50 50" fill="none" xmlns="http://www.w3.org/2000/svg">
<g id="twitter">
<path id="Vector" d="M47.9163 6.24995C45.9213 7.6572 43.7124 8.73351 41.3747 9.43745C40.12 7.99477 38.4525 6.97223 36.5977 6.50813C34.7429 6.04404 32.7903 6.16078 31.004 6.84256C29.2177 7.52435 27.6839 8.73829 26.6101 10.3202C25.5362 11.9021 24.974 13.7757 24.9997 15.6875V17.7708C21.3385 17.8657 17.7107 17.0537 14.4393 15.4071C11.1679 13.7605 8.3545 11.3304 6.24967 8.33329C6.24967 8.33329 -2.08366 27.0833 16.6663 35.4166C12.3758 38.3291 7.26458 39.7894 2.08301 39.5833C20.833 50 43.7497 39.5833 43.7497 15.625C43.7478 15.0446 43.692 14.4658 43.583 13.8958C45.7093 11.7989 47.2097 9.15144 47.9163 6.24995V6.24995Z" stroke="white" stroke-width="2" stroke-linecap="round" stroke-linejoin="round"/>
</g>
</svg>
